<svg viewBox="0 0 512 512" xmlns="http://www.w3.org/2000/svg" xmlns:xlink="http://www.w3.org/1999/xlink" overflow="hidden"><path d="M234.5 5.709C248.4 0.7377 263.6 0.7377 277.5 5.709L469.5 74.28C494.1 83.38 512 107.5 512 134.6L512 377.4C512 404.5 494.1 428.6 469.5 437.7L277.5 506.3C263.6 511.3 248.4 511.3 234.5 506.3L42.47 437.7C17 428.6 0 404.5 0 377.4L0 134.6C0 107.5 17 83.38 42.47 74.28L234.5 5.709ZM256 65.98 82.34 128 256 190 429.7 128 256 65.98ZM288 434.6 448 377.4 448 189.4 288 246.6 288 434.6Z" fill="#495374"/></svg>