<svg viewBox="0 0 384 512" xmlns="http://www.w3.org/2000/svg" xmlns:xlink="http://www.w3.org/1999/xlink" overflow="hidden"><path d="M184 208C184 203.594 180.406 200 176 200 171.594 200 168 203.6 168 208 168 210.062 168.297 231.31 177.141 258.25 179.1 249.6 184 226.2 184 208ZM256 0 256 128 384 128 256 0ZM80 422.4C80 432.056 90.47 434.37 94.38 428.775 99.27 421.9 108.8 408 120.1 388.6 105.88 396.569 92.85 405.91 82.08 416.91 80.75 418.3 80 420.3 80 422.4ZM224 128 224 0 48 0C21.49 0 0 21.49 0 48L0 464C0 490.5 21.49 512 48 512L336 512C362.51 512 384 490.51 384 464L384 160 256.9 160C238.3 160 224 145.7 224 128ZM292 312C316.26 312 336 331.74 336 356 336 380.67 317.06 400 292.87 400 286.876 400 281.06 399.047 275.65 397.195 255.59 390.437 237.27 381.235 221.1 369.805 197.22 374.914 175.64 381.325 156.79 388.905 142.36 415.215 129.16 435.055 120.42 447.315 112.1 457.8 100.8 464 87.94 464 65.92 464 48 446.1 48 424.1 48 412.18 51.74 402.28 59.18 394.59 75.36 378.07 96.55 363.6 122.2 351.54 133.95 328.71 144.14 305.5 152.53 282.4 136.2 242.4 136 208.4 136 208 136 185.95 153.95 168 176 168 198.06 168 216 185.95 216 208 216 232.1 208.773 263.75 207.062 270.63 206.056 273.903 205.027 277.146 203.98 280.353 211.81 294.813 221.68 307.563 233.42 318.403 263.1 313.4 284.3 312.1 287.6 312L292 312ZM156.5 354.6C174.48 348.1 192.63 343.16 209.42 339.41 197 327.35 187.25 314.29 179.62 301.25 172.3 320.6 164.4 338.5 156.5 354.6ZM292.9 368C299 368 304 363 304 356.9 304 349.4 298.6 344 292 344L288 344C287.656 344.031 271.17 344.969 247.05 348.75 258.32 355.75 271.17 361.94 285.89 366.87 288 367.6 290.5 368 292.9 368Z" fill="#495374"/></svg>