<svg viewBox="0 0 512 512" xmlns="http://www.w3.org/2000/svg" xmlns:xlink="http://www.w3.org/1999/xlink" overflow="hidden"><path d="M0 256C0 114.6 114.6 0 256 0 397.4 0 512 114.6 512 256 512 397.4 397.4 512 256 512 114.6 512 0 397.4 0 256ZM164.1 325.5C158.3 318.8 148.2 318.1 141.5 323.9 134.8 329.7 134.1 339.8 139.9 346.5 162.1 372.1 200.9 400 255.1 400 311.1 400 349.8 372.1 372.1 346.5 377.9 339.8 377.2 329.7 370.5 323.9 363.8 318.1 353.7 318.8 347.9 325.5 329.9 346.2 299.4 368 255.1 368 212.6 368 182 346.2 164.1 325.5L164.1 325.5ZM176.4 176C158.7 176 144.4 190.3 144.4 208 144.4 225.7 158.7 240 176.4 240 194 240 208.4 225.7 208.4 208 208.4 190.3 194 176 176.4 176ZM336.4 240C354 240 368.4 225.7 368.4 208 368.4 190.3 354 176 336.4 176 318.7 176 304.4 190.3 304.4 208 304.4 225.7 318.7 240 336.4 240Z" fill="#385723"/></svg>