<svg viewBox="0 0 512 512" xmlns="http://www.w3.org/2000/svg" xmlns:xlink="http://www.w3.org/1999/xlink" overflow="hidden"><path d="M0 256C0 114.6 114.6 0 256 0 397.4 0 512 114.6 512 256 512 397.4 397.4 512 256 512 114.6 512 0 397.4 0 256ZM159.3 388.7C171.5 349.4 209.9 320 256 320 302.1 320 340.5 349.4 352.7 388.7 355.3 397.2 364.3 401.9 372.7 399.3 381.2 396.7 385.9 387.7 383.3 379.3 366.8 326.1 315.8 287.1 256 287.1 196.3 287.1 145.2 326.1 128.7 379.3 126.1 387.7 130.8 396.7 139.3 399.3 147.7 401.9 156.7 397.2 159.3 388.7L159.3 388.7ZM176.4 176C158.7 176 144.4 190.3 144.4 208 144.4 225.7 158.7 240 176.4 240 194 240 208.4 225.7 208.4 208 208.4 190.3 194 176 176.4 176ZM336.4 240C354 240 368.4 225.7 368.4 208 368.4 190.3 354 176 336.4 176 318.7 176 304.4 190.3 304.4 208 304.4 225.7 318.7 240 336.4 240Z" fill="#744953"/></svg>