<svg viewBox="0 0 512 512" xmlns="http://www.w3.org/2000/svg" xmlns:xlink="http://www.w3.org/1999/xlink" overflow="hidden"><path d="M0 256C0 114.6 114.6 0 256 0 397.4 0 512 114.6 512 256 512 397.4 397.4 512 256 512 114.6 512 0 397.4 0 256ZM176.4 240C194 240 208.4 225.7 208.4 208 208.4 190.3 194 176 176.4 176 158.7 176 144.4 190.3 144.4 208 144.4 225.7 158.7 240 176.4 240ZM336.4 176C318.7 176 304.4 190.3 304.4 208 304.4 225.7 318.7 240 336.4 240 354 240 368.4 225.7 368.4 208 368.4 190.3 354 176 336.4 176ZM160 336C151.2 336 144 343.2 144 352 144 360.8 151.2 368 160 368L352 368C360.8 368 368 360.8 368 352 368 343.2 360.8 336 352 336L160 336Z" fill="#BF9000"/></svg>